<?xml version="1.0" encoding="UTF-8" standalone="no"?><!-- Generator: Adobe Illustrator 23.0.1, SVG Export Plug-In . SVG Version: 6.00 Build 0)  --><svg xmlns="http://www.w3.org/2000/svg" enable-background="new 0 0 392 341.4" fill="#000000" id="Layer_1" version="1.1" viewBox="0 0 392 341.4" x="0px" xml:space="preserve" y="0px">
<g id="change1_1"><path d="m361.5 30.5c-40.7-40.7-106.8-40.7-147.5 0l-18 18-18-18c-40.7-40.7-106.8-40.7-147.5 0s-40.7 106.8 0 147.5l162 162c0.9 0.9 2.2 1.4 3.5 1.4s2.6-0.5 3.5-1.4l162-162c40.7-40.7 40.7-106.8 0-147.5zm-7 140.5l-158.5 158.5-158.5-158.5c-36.8-36.8-36.8-96.7 0-133.5 17.7-17.8 41.5-27.5 66.8-27.5s49 9.8 66.8 27.5l21.4 21.5c1.9 1.9 5.1 1.9 7 0l21.5-21.5c36.8-36.8 96.7-36.8 133.5 0s36.8 96.7 0 133.5zm-95-30.1h-33.7v-33.7c0-8.2-6.7-14.9-14.9-14.9h-29.9c-8.2 0-14.9 6.7-14.9 14.9v33.7h-33.7c-8.2 0-14.9 6.7-14.9 14.9v29.9c0 8.2 6.7 14.9 14.9 14.9h33.7v33.7c0 8.2 6.7 14.9 14.9 14.9h29.9c8.2 0 14.9-6.7 14.9-14.9v-33.7h33.7c8.2 0 14.9-6.7 14.9-14.9v-29.9c0-8.2-6.7-14.9-14.9-14.9zm5 44.8c0 2.8-2.3 5-5 5h-38.6c-2.7 0-4.9 2.2-4.9 4.9v38.6c0 2.8-2.3 5-5 5h-30c-2.8 0-5-2.3-5-5v-38.6c0-2.7-2.2-4.9-4.9-4.9h-38.6c-2.8 0-5-2.3-5-5v-29.9c0-2.8 2.3-5 5-5h38.6c2.7 0 4.9-2.2 4.9-4.9v-38.6c0-2.8 2.3-5 5-5h29.9c2.8 0 5 2.3 5 5v38.6c0 2.7 2.2 4.9 4.9 4.9h38.6c2.8 0 5 2.3 5 5v29.9zm54.6-146.6c-2.2-1.6-5.3-1.1-6.9 1.1s-1.1 5.3 1.2 6.9c0.4 0.3 38 27.8 25.4 71.9-0.8 2.6 0.8 5.4 3.4 6.1 0.5 0.1 0.9 0.2 1.4 0.2 2.2 0 4.1-1.4 4.8-3.6 14.3-50.7-28.9-82.3-29.3-82.6zm18.3 96.9c-2.4-1.3-5.4-0.5-6.7 1.9-2.1 3.7-4.5 7.4-7.2 11.1-1.6 2.2-1.1 5.3 1.1 6.9 0.9 0.6 1.9 0.9 2.9 0.9 1.5 0 3-0.7 4-2 2.9-4 5.5-8.1 7.8-12.1 1.3-2.4 0.5-5.4-1.9-6.7z" fill="#ccfe06"/></g>
</svg>